<?xml version="1.0" encoding="UTF-8" standalone="no"?>
<svg
   width="16"
   height="16"
   viewBox="0 0 16 16"
   fill="none"
   version="1.1"
   id="svg1320"
   sodipodi:docname="external-link.svg"
   inkscape:version="1.2.1 (9c6d41e410, 2022-07-14)"
   xmlns:inkscape="http://www.inkscape.org/namespaces/inkscape"
   xmlns:sodipodi="http://sodipodi.sourceforge.net/DTD/sodipodi-0.dtd"
   xmlns="http://www.w3.org/2000/svg"
   xmlns:svg="http://www.w3.org/2000/svg">
  <defs
     id="defs1324" />
  <sodipodi:namedview
     id="namedview1322"
     pagecolor="#ffffff"
     bordercolor="#666666"
     borderopacity="1.0"
     inkscape:showpageshadow="2"
     inkscape:pageopacity="0.0"
     inkscape:pagecheckerboard="0"
     inkscape:deskcolor="#d1d1d1"
     showgrid="false"
     inkscape:zoom="18.790999"
     inkscape:cx="11.654516"
     inkscape:cy="8.0091539"
     inkscape:window-width="1920"
     inkscape:window-height="1017"
     inkscape:window-x="1912"
     inkscape:window-y="-8"
     inkscape:window-maximized="1"
     inkscape:current-layer="svg1320" />
  <g
     id="g1742">
    <path
       d="M 10,0 C 9.44772,0 9,0.447715 9,1 9,1.55228 9.44772,2 10,2 h 2.5858 L 6.79289,7.79289 c -0.39052,0.39053 -0.39052,1.02369 0,1.41422 0.39053,0.39052 1.02369,0.39052 1.41422,0 L 14,3.41421 V 6 c 0,0.55228 0.4477,1 1,1 0.5523,0 1,-0.44772 1,-1 V 0 Z"
       fill="#6a6969"
       id="path1316"
       style="fill:#000000;fill-opacity:1" />
    <path
       d="m 15,14 v -3 c 0,-0.5523 -0.4477,-1 -1,-1 -0.5523,0 -1,0.4477 -1,1 v 3 H 2 V 3 H 5 C 5.55228,3 6,2.55228 6,2 6,1.44772 5.55228,1 5,1 H 2 C 0.89543,1 0,1.89543 0,3 v 11 c 0,1.1046 0.89543,2 2,2 h 11 c 1.1046,0 2,-0.8954 2,-2 z"
       fill="#6a6969"
       id="path1318"
       style="fill:#000000;fill-opacity:1" />
  </g>
</svg>
