<?xml version="1.0" encoding="UTF-8" standalone="no"?>
<svg
   width="222"
   height="184"
   viewBox="0 0 222 184"
   fill="none"
   version="1.1"
   id="svg2127"
   sodipodi:docname="quotes-2.svg"
   inkscape:version="1.2.1 (9c6d41e410, 2022-07-14)"
   xmlns:inkscape="http://www.inkscape.org/namespaces/inkscape"
   xmlns:sodipodi="http://sodipodi.sourceforge.net/DTD/sodipodi-0.dtd"
   xmlns="http://www.w3.org/2000/svg"
   xmlns:svg="http://www.w3.org/2000/svg">
  <defs
     id="defs2131" />
  <sodipodi:namedview
     id="namedview2129"
     pagecolor="#ffffff"
     bordercolor="#666666"
     borderopacity="1.0"
     inkscape:showpageshadow="2"
     inkscape:pageopacity="0.0"
     inkscape:pagecheckerboard="0"
     inkscape:deskcolor="#d1d1d1"
     showgrid="false"
     inkscape:zoom="1.6339999"
     inkscape:cx="208.07835"
     inkscape:cy="113.5251"
     inkscape:window-width="1920"
     inkscape:window-height="1017"
     inkscape:window-x="1912"
     inkscape:window-y="-8"
     inkscape:window-maximized="1"
     inkscape:current-layer="svg2127" />
  <path
     d="M68.262 90.8129C76.9679 94.3742 83.6952 100.112 88.4439 108.026C93.5882 115.544 96.1604 124.645 96.1604 135.329C96.1604 149.574 91.6096 161.247 82.508 170.348C73.4064 179.449 62.1283 184 48.6738 184C34.4278 184 22.754 179.449 13.6524 170.348C4.5508 161.247 0 149.574 0 135.329C0 128.206 0.791444 121.282 2.37433 114.555C4.35294 107.828 7.91444 97.7376 13.0588 84.2839L44.5187 0H92.0054L68.262 90.8129ZM194.102 90.8129C202.807 94.3742 209.535 100.112 214.283 108.026C219.428 115.544 222 124.645 222 135.329C222 149.574 217.449 161.247 208.348 170.348C199.246 179.449 187.968 184 174.513 184C160.267 184 148.594 179.449 139.492 170.348C130.39 161.247 125.84 149.574 125.84 135.329C125.84 128.206 126.631 121.282 128.214 114.555C130.193 107.828 133.754 97.7376 138.898 84.2839L170.358 0H217.845L194.102 90.8129Z"
     fill="#9B9B9B"
     id="path2125"
     style="fill:#9b9b9b;fill-opacity:1" />
</svg>
